<?xml version="1.0"?>
<svg xmlns="http://www.w3.org/2000/svg" viewBox="0 0 512 512" width="512" height="512"><g id="Fill_out_line" data-name="Fill out line"><path d="M392,160A135.9729,135.9729,0,0,1,258.68994,295.97c-.88989.02-1.78992.03-2.68994.03A136.009,136.009,0,0,1,242.15,24.68994H242.16C246.71,24.24,251.33,24,256,24A135.98076,135.98076,0,0,1,392,160Z" style="fill:#65dcff"/><path d="M224,200l24,40-38.33,47.90991a136.0385,136.0385,0,0,1,32.48-263.22H242.16L248,32l-48,96H160v32h32l32,16Z" style="fill:#a0cc00"/><path d="M392,160a136.14812,136.14812,0,0,1-4.49,34.79L344,205.66992l-24-72-56-8v-48L334.24,48.75A135.82158,135.82158,0,0,1,392,160Z" style="fill:#a0cc00"/><path d="M354.45,253.83984a135.64418,135.64418,0,0,1-95.76,42.13013L296,248Z" style="fill:#a0cc00"/><path d="M168,384v24H88L24,280V185.32007A17.32238,17.32238,0,0,1,58.41,182.48L72,264l27.63,34.53,19.67,24.59985Z" style="fill:#ffc7cc"/><path d="M168,384v0a264.70386,264.70386,0,0,0-16.85391-92.94371l-2.92807-7.80818A17.33466,17.33466,0,0,0,131.98707,272h0a17.33467,17.33467,0,0,0-17.16045,19.78616l4.47776,31.34428Z" style="fill:#ffc7cc"/><rect x="72" y="408" width="112" height="40" style="fill:#e6e6e6"/><rect x="56" y="440" width="144" height="56" style="fill:#3ea7ff"/><path d="M488,185.32007V280L424,408H344V384l48.7-60.87012L412.37,298.53,440,264l13.59009-81.52A17.32235,17.32235,0,0,1,488,185.32007Z" style="fill:#ffc7cc"/><path d="M344,384v0a264.70386,264.70386,0,0,1,16.85391-92.94371l2.92807-7.80818A17.33466,17.33466,0,0,1,380.01293,272h0a17.33467,17.33467,0,0,1,17.16045,19.78616l-4.47776,31.34428Z" style="fill:#ffc7cc"/><rect x="328" y="408" width="112" height="40" transform="translate(768 856) rotate(-180)" style="fill:#e6e6e6"/><rect x="312" y="440" width="144" height="56" transform="translate(768 936) rotate(-180)" style="fill:#3ea7ff"/><path d="M400,160c0-79.40234-64.59814-144-144-144S112,80.59766,112,160s64.59814,144,144,144S400,239.40234,400,160Zm-16,0a127.94333,127.94333,0,0,1-3.13818,28.2063l-31.61524,7.905-21.65722-64.97168a8.00109,8.00109,0,0,0-6.458-5.38965L272,118.73145V83.02734l61.07959-25.14795A127.8751,127.8751,0,0,1,384,160ZM316.68628,47.32593,260.9541,70.27246A7.99988,7.99988,0,0,0,256,77.66992v48a8.00031,8.00031,0,0,0,6.86865,7.91992l51.10547,7.30078,22.43652,67.30958a7.99389,7.99389,0,0,0,9.53028,5.23046l29.48218-7.37207a128.21835,128.21835,0,0,1-24.23145,39.41626L296.79541,240.04a7.97907,7.97907,0,0,0-7.11035,3.04883l-34.919,44.89551a127.69785,127.69785,0,0,1-31.51922-4.23853l31.00018-38.7478a8.00073,8.00073,0,0,0,.61279-9.11426L232,197.78418V176a7.99979,7.99979,0,0,0-4.42236-7.15527l-32-16A7.99583,7.99583,0,0,0,192,152H168V136h32a7.99967,7.99967,0,0,0,7.15527-4.42188l48-96a7.97167,7.97167,0,0,0,.83-3.57788L256,32A127.20889,127.20889,0,0,1,316.68628,47.32593ZM335.78442,260.0144a127.465,127.465,0,0,1-59.5072,26.3733l23.32434-29.98829ZM128,160c0-64.62622,48.14575-118.21094,110.45154-126.79175L195.05566,120H160a8.00008,8.00008,0,0,0-8,8v32a8.00008,8.00008,0,0,0,8,8h30.11133L216,180.94434V200a7.99883,7.99883,0,0,0,1.14014,4.11621l21.13769,35.22949-31.158,38.946A128.19572,128.19572,0,0,1,128,160Z"/><path d="M200,432h-8V408a8.00008,8.00008,0,0,0-8-8h-8V384a271.77931,271.77931,0,0,0-17.36328-95.752l-2.92822-7.80957A25.33456,25.33456,0,0,0,106.90723,292.917l.33246,2.32715L79.54834,260.62988,66.30371,181.16113A25.32411,25.32411,0,0,0,16,185.32422V280a7.99934,7.99934,0,0,0,.84473,3.57812L75.05566,400H72a8.00008,8.00008,0,0,0-8,8v24H56a8.00008,8.00008,0,0,0-8,8v56H64V448H192v48h16V440A8.00008,8.00008,0,0,0,200,432ZM32,278.11133V185.32422A9.32411,9.32411,0,0,1,50.52148,183.792l13.58741,81.52344a7.99512,7.99512,0,0,0,1.644,3.68164l45.94049,57.42627,4.95844,34.7085,15.83886-2.26368L127.22363,321.999h-.00012l-4.47742-31.34375A9.335,9.335,0,0,1,131.9873,280a9.37914,9.37914,0,0,1,8.74024,6.05664l2.92773,7.80859A255.835,255.835,0,0,1,160,384v16H92.94434ZM80,416h96v16H80Z"/><path d="M470.67578,160a25.24442,25.24442,0,0,0-24.97949,21.16113l-13.24463,79.46875-27.69141,34.61426.33252-2.32715A25.33461,25.33461,0,0,0,356.291,280.43945l-2.92774,7.8086A271.77931,271.77931,0,0,0,336,384v16h-8a8.00008,8.00008,0,0,0-8,8v24h-8a8.00008,8.00008,0,0,0-8,8v56h16V448H448v48h16V440a8.00008,8.00008,0,0,0-8-8h-8V408a8.00008,8.00008,0,0,0-8-8h-3.05566l58.21093-116.42188A7.99934,7.99934,0,0,0,496,280V185.32422A25.35284,25.35284,0,0,0,470.67578,160ZM336,432V416h96v16ZM480,278.11133,419.05566,400H352V384a255.835,255.835,0,0,1,16.34473-90.13477l2.92724-7.80761A9.38041,9.38041,0,0,1,380.01318,280a9.335,9.335,0,0,1,9.24073,10.65527L384.77649,321.999h-.00012l-5.26709,36.86914,15.83886,2.26368,4.9585-34.7085,45.94043-57.42627a7.99512,7.99512,0,0,0,1.644-3.68164L461.47852,183.792A9.32411,9.32411,0,0,1,480,185.32422Z"/></g></svg>
