<svg height="512pt" viewBox="-61 0 512 512" width="512pt" xmlns="http://www.w3.org/2000/svg"><path d="m120.070312 363.355469c20.738282 20.738281 50.441407 27.503906 69.21875 29.683593 9.714844 1.125 17.921876-7.078124 16.792969-16.792968-2.179687-18.777344-8.945312-48.480469-29.683593-69.21875-20.738282-20.738282-50.4375-27.5-69.21875-29.679688-9.710938-1.128906-17.917969 7.078125-16.792969 16.789063 2.179687 18.78125 8.945312 48.480469 29.683593 69.21875zm0 0" fill="#00b965"/><path d="m189.289062 393.039062c-6.554687-.761718-14.445312-2.085937-22.816406-4.363281 1.660156-2.746093 2.480469-6.046875 2.074219-9.554687-2.179687-18.78125-8.945313-48.480469-29.683594-69.21875-13.496093-13.5-30.792969-21.074219-46.402343-25.320313 2.9375-4.859375 8.511718-7.957031 14.71875-7.234375 18.78125 2.179688 48.480468 8.941406 69.21875 29.679688 20.738281 20.738281 27.5 50.441406 29.679687 69.21875 1.132813 9.714844-7.074219 17.917968-16.789063 16.792968zm0 0" fill="#00a855"/><path d="m288.960938 392.105469c-20.738282 20.738281-27.503907 50.4375-29.683594 69.21875-1.125 9.710937 7.082031 17.917969 16.792968 16.789062 18.78125-2.179687 48.480469-8.941406 69.21875-29.679687 20.738282-20.738282 27.5-50.441406 29.683594-69.21875 1.125-9.714844-7.082031-17.921875-16.792968-16.792969-18.78125 2.179687-48.480469 8.945313-69.21875 29.683594zm0 0" fill="#00b965"/><path d="m259.277344 461.324219c.761718-6.554688 2.085937-14.445313 4.363281-22.816407 2.746094 1.65625 6.046875 2.480469 9.554687 2.074219 18.78125-2.179687 48.480469-8.945312 69.21875-29.683593 13.5-13.5 21.074219-30.792969 25.320313-46.402344 4.859375 2.933594 7.957031 8.511718 7.238281 14.714844-2.183594 18.78125-8.945312 48.480468-29.683594 69.21875-20.738281 20.738281-50.441406 27.503906-69.21875 29.683593-9.710937 1.128907-17.917968-7.078125-16.792968-16.789062zm0 0" fill="#00a855"/><path d="m335.632812 153.253906h-37.015624v-127.265625c0-10.222656 8.285156-18.507812 18.507812-18.507812s18.507812 8.285156 18.507812 18.507812zm0 0" fill="#b9acac"/><path d="m210.621094 153.253906h-37.011719v-127.265625c0-10.222656 8.285156-18.507812 18.503906-18.507812 10.222657 0 18.507813 8.285156 18.507813 18.507812zm0 0" fill="#b9acac"/><path d="m317.125 7.480469c-2.636719 0-5.136719.558593-7.40625 1.550781 6.535156 2.855469 11.101562 9.367188 11.101562 16.953125v127.269531h14.8125v-127.265625c0-10.222656-8.285156-18.507812-18.507812-18.507812zm0 0" fill="#9e9797"/><path d="m192.113281 7.480469c-2.632812 0-5.132812.558593-7.402343 1.550781 6.53125 2.855469 11.101562 9.367188 11.101562 16.953125v127.269531h14.808594v-127.265625c0-10.222656-8.285156-18.507812-18.507813-18.507812zm0 0" fill="#9e9797"/><path d="m254.621094 296.152344c-58.757813 0-106.386719-47.628906-106.386719-106.382813v-41.796875c0-6.453125 5.230469-11.6875 11.6875-11.6875h189.398437c6.453126 0 11.683594 5.234375 11.683594 11.6875v41.796875c0 58.753907-47.628906 106.382813-106.382812 106.382813zm0 0" fill="#92dfb7"/><path d="m349.320312 136.285156h-32.3125v32.773438c0 58.757812-47.628906 106.386718-106.386718 106.386718-7.570313 0-14.957032-.796874-22.078125-2.300781 18.148437 14.402344 41.105469 23.007813 66.078125 23.007813 58.753906 0 106.382812-47.628906 106.382812-106.382813v-41.796875c0-6.453125-5.230468-11.6875-11.683594-11.6875zm0 0" fill="#6fd6a2"/><path d="m373.195312 173.867188h-237.152343c-5.402344 0-9.78125-4.378907-9.78125-9.78125v-28.742188c0-5.40625 4.378906-9.785156 9.78125-9.785156h237.152343c5.402344 0 9.785157 4.378906 9.785157 9.785156v28.742188c0 5.402343-4.378907 9.78125-9.785157 9.78125zm0 0" fill="#92dfb7"/><path d="m373.222656 125.558594h-20.164062v25.125c0 5.390625-4.367188 9.757812-9.757813 9.757812h-217.039062v3.667969c0 5.390625 4.367187 9.757813 9.753906 9.757813h237.207031c5.386719 0 9.757813-4.367188 9.757813-9.757813v-28.792969c0-5.386718-4.371094-9.757812-9.757813-9.757812zm0 0" fill="#6fd6a2"/><path d="m59.023438 366.015625c19.972656 0 37.535156 11.046875 47.628906 19.042969 5.21875 4.132812 5.21875 12.039062 0 16.171875-10.09375 7.992187-27.65625 19.039062-47.628906 19.039062-19.972657 0-37.535157-11.046875-47.628907-19.039062-5.21875-4.132813-5.21875-12.039063 0-16.171875 10.09375-7.996094 27.65625-19.042969 47.628907-19.042969zm0 0" fill="#00b965"/><path d="m106.652344 385.058594c-3.710938-2.941406-8.4375-6.292969-13.917969-9.355469.046875 3.058594-1.25 6.136719-3.90625 8.238281-10.09375 7.996094-27.652344 19.039063-47.628906 19.039063-12.628907 0-24.289063-4.414063-33.710938-9.683594.042969 2.957031 1.339844 5.902344 3.90625 7.933594 10.09375 7.992187 27.65625 19.039062 47.628907 19.039062 19.972656 0 37.535156-11.046875 47.628906-19.039062 5.21875-4.136719 5.21875-12.039063 0-16.171875zm0 0" fill="#00a855"/><path d="m373.222656 118.078125h-30.109375v-92.089844c0-14.332031-11.660156-25.988281-25.988281-25.988281s-25.988281 11.65625-25.988281 25.988281v92.089844h-73.035157v-92.089844c0-14.332031-11.65625-25.988281-25.988281-25.988281-14.328125 0-25.984375 11.65625-25.984375 25.988281v92.089844h-30.113281c-9.503906 0-17.234375 7.734375-17.234375 17.238281v28.796875c0 9.503907 7.730469 17.234375 17.234375 17.234375h4.738281v8.421875c0 60.347657 47.191406 109.871094 106.609375 113.625v82.265625h-35.027343c1.164062-3.234375 1.585937-6.738281 1.175781-10.277344-2.503907-21.582031-10.0625-51.882812-31.824219-73.644531s-52.058594-29.316406-73.644531-31.824219c-6.914063-.800781-13.699219 1.554688-18.613281 6.472657-4.914063 4.914062-7.273438 11.699219-6.472657 18.609375 2.507813 21.585937 10.0625 51.886718 31.824219 73.648437 7.070312 7.070313 15.042969 12.632813 23.320312 17.015625h-21.699218c-1.152344-2.488281-2.878906-4.707031-5.105469-6.46875-11.898437-9.421875-30.625-20.65625-52.273437-20.65625-21.644532 0-40.375 11.234375-52.273438 20.65625-4.289062 3.398438-6.75 8.480469-6.75 13.949219s2.460938 10.554687 6.75 13.949219c11.898438 9.425781 30.628906 20.65625 52.273438 20.65625 21.648437 0 40.375-11.230469 52.273437-20.65625 2.226563-1.761719 3.953125-3.980469 5.105469-6.46875h130.960937v103.898437c0 4.132813 3.347657 7.480469 7.480469 7.480469s7.480469-3.347656 7.480469-7.480469v-22.277343c3.570312 2.242187 7.6875 3.457031 11.953125 3.457031.878906 0 1.769531-.050781 2.65625-.152344 21.582031-2.507813 51.882812-10.058594 73.644531-31.824219 2.363281-2.359375 4.636719-4.914062 6.765625-7.585937 2.570312-3.234375 2.035156-7.9375-1.195312-10.511719-3.234376-2.574219-7.9375-2.035156-10.511719 1.195312-1.777344 2.234376-3.671875 4.363282-5.636719 6.324219-18.71875 18.722657-45.566406 25.308594-64.792969 27.542969-2.34375.273438-4.644531-.527344-6.308593-2.191406-1.664063-1.664063-2.460938-3.960938-2.191407-6.308594 2.230469-19.222656 8.820313-46.070312 27.542969-64.792969 18.71875-18.71875 45.566406-25.308593 64.792969-27.539062 2.34375-.273438 4.644531.523437 6.308593 2.1875 1.664063 1.664062 2.460938 3.964843 2.1875 6.308593-1.230468 10.636719-3.484374 20.71875-6.691406 29.976563-1.351562 3.902344.71875 8.164063 4.621094 9.515625s8.164062-.714844 9.515625-4.617188c3.5625-10.28125 6.058594-21.4375 7.417969-33.148437.800781-6.914063-1.554688-13.695313-6.472656-18.613281-4.914063-4.914063-11.707032-7.269532-18.609376-6.472656-21.585937 2.507812-51.882812 10.0625-73.648437 31.824218-9.640625 9.640625-16.488281 20.957032-21.347656 32.445313v-115.894531c59.207031-3.972657 106.164062-53.402344 106.164062-113.597657v-8.421875h4.734375c9.507813 0 17.238282-7.730468 17.238282-17.234375v-28.796875c0-9.503906-7.734376-17.238281-17.238282-17.238281zm-275.402344 175.195313c-.273437-2.34375.523438-4.644532 2.1875-6.308594 1.449219-1.449219 3.382813-2.242188 5.40625-2.242188.300782 0 .601563.019532.902344.054688 19.226563 2.230468 46.074219 8.820312 64.792969 27.542968 18.71875 18.71875 25.3125 45.566407 27.542969 64.789063.273437 2.347656-.527344 4.648437-2.191406 6.3125-1.664063 1.664063-3.964844 2.460937-6.308594 2.1875-19.222656-2.230469-46.070313-8.820313-64.792969-27.539063-18.71875-18.722656-25.308594-45.570312-27.539063-64.796874zm4.1875 102.089843c-8.214843 6.507813-24.726562 17.425781-42.984374 17.425781-18.257813 0-34.769532-10.917968-42.984376-17.425781-.9375-.742187-1.078124-1.710937-1.078124-2.222656 0-.507813.140624-1.476563 1.078124-2.21875 8.21875-6.507813 24.726563-17.425781 42.984376-17.425781 18.257812 0 34.769531 10.914062 42.984374 17.425781.9375.742187 1.082032 1.710937 1.082032 2.21875 0 .511719-.144532 1.480469-1.082032 2.222656zm204.089844-369.375c0-6.082031 4.949219-11.027343 11.027344-11.027343 6.082031 0 11.027344 4.945312 11.027344 11.027343v92.089844h-22.054688zm-125.007812 0c0-6.082031 4.945312-11.027343 11.027344-11.027343 6.078124 0 11.027343 4.945312 11.027343 11.027343v92.089844h-22.054687zm194.410156 138.121094c0 1.257813-1.023438 2.277344-2.277344 2.277344h-152.507812c-4.132813 0-7.480469 3.351562-7.480469 7.480469 0 4.132812 3.347656 7.480468 7.480469 7.480468h132.808594v8.421875c0 54.535157-44.367188 98.902344-98.902344 98.902344s-98.90625-44.367187-98.90625-98.902344v-8.421875h30.460937c4.128907 0 7.480469-3.347656 7.480469-7.480468 0-4.128907-3.351562-7.480469-7.480469-7.480469h-50.160156c-1.253906 0-2.277344-1.019531-2.277344-2.277344v-28.792969c0-1.253906 1.023438-2.277344 2.277344-2.277344h237.207031c1.253906 0 2.277344 1.019532 2.277344 2.277344zm0 0"/></svg>