<svg id="_x33_0" enable-background="new 0 0 64 64" height="512" viewBox="0 0 64 64" width="512" xmlns="http://www.w3.org/2000/svg"><g><g><path d="m18 51.65c-5.73-1.35-10-6.5-10-12.65v-3h-6v-6c0-5.18.94-9.93 2.79-14h.01 25.2v4c0 1.1.9 2 2 2h4v3.65c0 .75.6 1.35 1.35 1.35.32 0 .64-.12.88-.34.29 1 .83 1.89 1.55 2.59-2.33 2.19-3.78 5.3-3.78 8.75v10 14h-18z" fill="#f0d0b4"/><path d="m41.88 6h-9.88c-1.1 0-2 .9-2 2v8h-25.2c3.86-8.51 11.7-14 23.2-14 6.5 0 11 2 13.88 4z" fill="#656d78"/><path d="m48 22v4c-3.19 0-6.08 1.23-8.22 3.25-.72-.7-1.26-1.59-1.55-2.59.07-.04.13-.1.18-.17l3.59-4.49z" fill="#656d78"/><path d="m50 56v6h-14v-14c3.31 0 6-2.69 6-6v-3c0-3.31 2.69-6 6-6h12.12c1.2 2.06 1.88 4.45 1.88 7v7h-4v1c0 4.42-3.58 8-8 8z" fill="#f0d0b4"/><path d="m39.78 29.25c2.14-2.02 5.03-3.25 8.22-3.25 3.86 0 7.36 1.57 9.9 4.1.86.86 1.61 1.84 2.22 2.9h-12.12c-3.31 0-6 2.69-6 6v3c0 3.31-2.69 6-6 6v-10c0-3.45 1.45-6.56 3.78-8.75z" fill="#fcd770"/><path d="m41.88 6h14.12c1.1 0 2 .9 2 2v12c0 1.1-.9 2-2 2h-8-6l-3.59 4.49c-.05.07-.11.13-.18.17-.24.22-.56.34-.88.34-.75 0-1.35-.6-1.35-1.35v-3.65h-4c-1.1 0-2-.9-2-2v-4-8c0-1.1.9-2 2-2z" fill="#e6e9ed"/><g fill="#ff826e"><circle cx="36" cy="14" r="2"/><circle cx="44" cy="14" r="2"/><circle cx="52" cy="14" r="2"/></g></g><g><path d="m36 17c1.654 0 3-1.346 3-3s-1.346-3-3-3-3 1.346-3 3 1.346 3 3 3zm0-4c.552 0 1 .448 1 1s-.448 1-1 1-1-.448-1-1 .448-1 1-1z"/><path d="m44 17c1.654 0 3-1.346 3-3s-1.346-3-3-3-3 1.346-3 3 1.346 3 3 3zm0-4c.552 0 1 .448 1 1s-.448 1-1 1-1-.448-1-1 .448-1 1-1z"/><path d="m52 17c1.654 0 3-1.346 3-3s-1.346-3-3-3-3 1.346-3 3 1.346 3 3 3zm0-4c.552 0 1 .448 1 1s-.448 1-1 1-1-.448-1-1 .448-1 1-1z"/><path d="m14 29c-1.654 0-3-1.346-3-3h-2c0 2.757 2.243 5 5 5s5-2.243 5-5h-2c0 1.654-1.346 3-3 3z"/><path d="m49 25.051v-2.051h7c1.654 0 3-1.346 3-3v-12c0-1.654-1.346-3-3-3h-13.832c-2.785-1.874-7.417-4-14.168-4-16.402 0-27 11.383-27 29v7h6v2c0 6.329 4.225 11.684 10 13.41v10.59h34v-6.059c4.493-.499 8-4.316 8-8.941h4v-8c0-7.934-6.195-14.431-14-14.949zm9.225 6.949h-10.225c-3.859 0-7 3.141-7 7v3c0 2.414-1.721 4.434-4 4.899v-8.899c0-6.065 4.935-11 11-11 4.15 0 7.844 1.962 10.225 5zm-11.225-6.949c-2.67.205-5.115 1.214-7.093 2.793-.21-.302-.393-.622-.532-.962l3.105-3.882h4.52zm10-17.051v12c0 .552-.448 1-1 1h-14.48l-3.896 4.869c-.185.234-.624.08-.624-.22v-4.649h-5c-.552 0-1-.448-1-1v-12c0-.552.448-1 1-1h24c.552 0 1 .448 1 1zm-29-5c4.227 0 7.533.894 10.029 2h-6.029c-1.654 0-3 1.346-3 3v7h-22.632c4.062-7.628 11.612-12 21.632-12zm-9 49.84c.655.094 1.319.16 2 .16h6v-2h-6c-6.617 0-12-5.383-12-12v-4h-6v-5c0-4.921.842-9.285 2.418-13h23.582v3c0 1.654 1.346 3 3 3h3v2.649c0 1.296 1.055 2.351 2.351 2.351.113 0 .222-.022.332-.037.209.444.457.869.755 1.261-2.127 2.315-3.438 5.392-3.438 8.776v23h-16zm42-6.84h-4v2c0 3.859-3.141 7-7 7h-7v2h6v4h-12v-12.08c3.386-.488 6-3.401 6-6.92v-3c0-2.757 2.243-5 5-5h11.521c.94 1.797 1.479 3.835 1.479 6z"/><path d="m53 42c-1.103 0-2-.897-2-2h-2c0 2.206 1.794 4 4 4s4-1.794 4-4h-2c0 1.103-.897 2-2 2z"/></g></g></svg>