<svg id="Layer_5" enable-background="new 0 0 64 64" height="512" viewBox="0 0 64 64" width="512" xmlns="http://www.w3.org/2000/svg"><path d="m29 40v6h-12v-4c0-1.1.9-2 2-2z" fill="#dfb28b"/><path d="m47 42v4h-12v-6h10c1.1 0 2 .9 2 2z" fill="#dfb28b"/><path d="m17 46v14c0 1.1.9 2 2 2h26c1.1 0 2-.9 2-2v-14z" fill="#ecc19c"/><path d="m35 46v4h-6v-4-6h6z" fill="#cf9e76"/><path d="m44 11v6l-2.71.68c-.04.1-.07.2-.12.3l1.44 2.38-4.25 4.25-2.38-1.44c-.1.05-.2.08-.3.12l-.68 2.71h-6l-.68-2.71c-.1-.04-.2-.07-.3-.12l-2.38 1.44-4.25-4.25 1.44-2.38c-.05-.1-.08-.2-.12-.3l-2.71-.68v-6l2.71-.68c.04-.1.07-.2.12-.3l-1.44-2.38 4.25-4.25 2.38 1.44c.1-.05.2-.08.3-.12l.68-2.71h6l.68 2.71c.1.04.2.07.3.12l2.38-1.44 4.25 4.25-1.44 2.38c.05.1.08.2.12.3zm-6 3c0-3.31-2.69-6-6-6s-6 2.69-6 6 2.69 6 6 6 6-2.69 6-6z" fill="#fcd770"/><path d="m14 43-3.03 3.03c-4.04-3.1-6.97-10.3-6.97-18.03 0-4.11.9-8 2.49-11.51l-3.49-3.49 10-1-1 10-2.46-2.46c-.99 2.64-1.54 5.48-1.54 8.46 0 6.63 2.69 12.63 6 15z" fill="#b4dd7f"/><path d="m61 43-10 1 1-10 2.46 2.46c.99-2.64 1.54-5.48 1.54-8.46 0-6.63-2.69-12.63-6-15l3.03-3.03c4.04 3.1 6.97 10.3 6.97 18.03 0 4.11-.9 8-2.49 11.51z" fill="#b4dd7f"/><path d="m32 21c3.859 0 7-3.14 7-7s-3.141-7-7-7-7 3.14-7 7 3.141 7 7 7zm0-12c2.757 0 5 2.243 5 5s-2.243 5-5 5-5-2.243-5-5 2.243-5 5-5z"/><path d="m20.135 20.519 5.346 5.347 2.136-1.281.602 2.415h7.562l.603-2.416 2.136 1.281 5.346-5.347-1.28-2.135 2.414-.602v-7.562l-2.416-.603 1.281-2.134-5.345-5.348-2.136 1.281-.603-2.415h-7.562l-.603 2.416-2.136-1.282-5.346 5.347 1.281 2.134-2.415.604v7.562l2.415.603zm.865-4.3v-4.438l1.949-.487.535-.203.464-1.142-1.296-2.158 3.139-3.138 2.159 1.296 1.22-.503.611-2.446h4.438l.611 2.446 1.22.503 2.159-1.296 3.139 3.138-1.296 2.158.496 1.22 2.452.612v4.438l-1.949.487-.534.202-.465 1.142 1.296 2.16-3.139 3.138-2.159-1.296-1.22.503-.611 2.445h-4.438l-.611-2.446-1.22-.503-2.159 1.296-3.139-3.138 1.296-2.16-.496-1.218z"/><path d="m45 39h-26c-1.654 0-3 1.346-3 3v18c0 1.654 1.346 3 3 3h26c1.654 0 3-1.346 3-3v-18c0-1.654-1.346-3-3-3zm1 3v3h-10v-4h9c.552 0 1 .448 1 1zm-16-1h4v8h-4zm-11 0h9v4h-10v-3c0-.552.448-1 1-1zm26 20h-26c-.552 0-1-.448-1-1v-13h10v4h8v-4h10v13c0 .552-.448 1-1 1z"/><path d="m42 57h2v2h-2z"/><path d="m34 57h2v2h-2z"/><path d="m38 57h2v2h-2z"/><path d="m51.215 31.801-1.331 13.315 13.315-1.331-4.494-4.495c1.524-3.59 2.295-7.385 2.295-11.29 0-7.882-2.959-15.446-7.362-18.823l-.695-.534-4.483 4.483.959.687c2.772 1.986 5.581 7.497 5.581 14.187 0 2.245-.327 4.462-.976 6.61zm4.176 5.007c1.068-2.834 1.609-5.798 1.609-8.808 0-6.063-2.225-12.041-5.513-15.073l1.601-1.6c3.514 3.236 5.912 9.915 5.912 16.673 0 3.851-.807 7.586-2.396 11.103l-.285.63 2.482 2.482-6.685.669.669-6.685 2.06 2.06z"/><path d="m9 28c0-2.245.327-4.461.976-6.61l2.81 2.81 1.331-13.316-13.316 1.331 4.494 4.495c-1.524 3.59-2.295 7.385-2.295 11.29 0 7.882 2.959 15.446 7.362 18.823l.695.533 4.483-4.483-.959-.687c-2.772-1.986-5.581-7.497-5.581-14.186zm1.912 16.674c-3.514-3.237-5.912-9.916-5.912-16.674 0-3.851.807-7.586 2.396-11.103l.285-.63-2.482-2.482 6.685-.668-.669 6.684-2.06-2.059-.546 1.451c-1.068 2.834-1.609 5.797-1.609 8.807 0 6.062 2.225 12.04 5.513 15.073z"/></svg>