<svg id="Capa_1" enable-background="new 0 0 511.999 511.999" height="512" viewBox="0 0 511.999 511.999" width="512" xmlns="http://www.w3.org/2000/svg"><g id="XMLID_759_"><path id="XMLID_2166_" d="m429.905 82.01c-96.072-96.027-251.799-96.014-347.854.041-86.517 86.516-95.103 221.434-25.792 317.578v-33.806h42.215c-52.334-74.879-45.083-178.745 21.76-245.588 74.967-74.967 196.503-74.98 271.487-.041l-25.982 25.982h90v-90z" fill="#f5737f"/><path id="XMLID_2165_" d="m455.739 112.37v33.806h-42.215c52.334 74.879 45.083 178.745-21.76 245.588-74.967 74.967-196.503 74.98-271.487.041l25.982-25.982h-90v90l25.834-25.834c96.072 96.027 251.799 96.014 347.854-.041 86.517-86.517 95.103-221.435 25.792-317.578z" fill="#91def5"/><g id="XMLID_2486_" fill="#d8ec84"><g id="XMLID_2257_"><path id="XMLID_2485_" d="m367.999 228.517h-34.636c-42.727 0-77.364 34.637-77.364 77.364v34.636h34.636c42.727 0 77.364-34.637 77.364-77.364z"/><path id="XMLID_2481_" d="m143.999 228.517h34.636c42.727 0 77.364 34.637 77.364 77.364v34.636h-34.636c-42.727 0-77.364-34.637-77.364-77.364z"/></g><path id="XMLID_2256_" d="m255.962 115.482-24.492 24.492c-30.212 30.212-30.212 79.196 0 109.409l24.492 24.492 24.492-24.492c30.212-30.212 30.212-79.196 0-109.409z"/></g><g id="XMLID_110_"><path id="XMLID_133_" d="m465.739 109.173v-52.997c0-4.044-2.437-7.691-6.173-9.239-3.737-1.548-8.039-.691-10.898 2.167l-18.898 18.9c-47.44-43.932-108.755-68.004-173.771-68.004-.009 0-.02 0-.028 0-68.369.007-132.647 26.636-180.991 74.98-43.247 43.247-69.613 100.605-74.241 161.509-4.495 59.15 11.666 118.078 45.52 166.336v52.997c0 4.045 2.437 7.691 6.173 9.238 3.738 1.549 8.038.692 10.898-2.167l18.899-18.899c47.438 43.933 108.753 68.005 173.77 68.004h.028c68.37-.007 132.646-26.636 180.991-74.979 43.246-43.246 69.611-100.604 74.24-161.507 4.497-59.151-11.664-118.08-45.519-166.339zm-376.617-20.05c91.996-91.995 241.698-92.012 333.714-.04 3.905 3.904 10.235 3.902 14.141-.001l8.763-8.763v55.858h-55.858l8.912-8.912c1.876-1.875 2.929-4.42 2.929-7.072 0-2.653-1.055-5.197-2.931-7.072-32.31-32.29-75.056-52.844-120.363-57.879-44.611-4.953-90.118 5.191-128.139 28.574-4.704 2.894-6.172 9.053-3.278 13.757 2.893 4.704 9.05 6.173 13.757 3.279 69.117-42.511 156.767-34.178 216.62 19.534l-18.72 18.719c-2.859 2.86-3.716 7.162-2.168 10.898 1.548 3.737 5.194 6.173 9.239 6.173h42.479c47.315 71.9 37.783 167.208-23.526 228.517-35.479 35.478-82.083 53.219-128.693 53.217-43.471-.002-86.946-15.434-121.387-46.299l18.717-18.717c2.859-2.86 3.716-7.161 2.168-10.898-1.548-3.736-5.194-6.173-9.239-6.173h-42.48c-38.683-58.813-39.984-134.804-2.927-195.056 2.894-4.704 1.426-10.863-3.278-13.757-4.705-2.893-10.864-1.425-13.757 3.279-20.556 33.421-30.839 71.936-29.738 111.378.93 33.329 9.951 65.531 26.251 94.155h-24.071c-5.106 0-9.312 3.831-9.917 8.774-47.117-90.205-31.292-201.402 42.78-275.473zm333.754 333.753c-91.994 91.995-241.696 92.014-333.714.039-3.905-3.902-10.235-3.902-14.141.002l-8.763 8.763v-55.857h55.858l-8.911 8.911c-1.876 1.876-2.929 4.42-2.929 7.073 0 2.652 1.055 5.196 2.931 7.071 39.376 39.352 91.079 59.025 142.793 59.022 51.726-.003 103.462-19.692 142.835-59.064 33.759-33.759 54.522-78.516 58.468-126.026 3.381-40.719-5.683-81.477-25.656-116.633h24.093c5.106 0 9.312-3.831 9.917-8.774 47.117 90.205 31.291 201.403-42.781 275.473z"/><path id="XMLID_137_" d="m221.362 350.517h69.273c48.172 0 87.363-39.191 87.363-87.363v-34.637c0-5.523-4.478-10-10-10h-34.637c-8.569 0-16.854 1.242-24.685 3.552 9.965-30.337 2.927-65.087-21.152-89.167l-24.492-24.492c-1.876-1.875-4.419-2.929-7.071-2.929s-5.195 1.054-7.071 2.929l-24.491 24.491c-16.501 16.5-25.588 38.439-25.588 61.775 0 9.435 1.486 18.641 4.346 27.352-7.784-2.28-16.011-3.513-24.522-3.513h-34.637c-5.522 0-10 4.477-10 10v34.637c.001 48.174 39.192 87.365 87.364 87.365zm112-112h24.637v24.637c0 37.145-30.219 67.363-67.363 67.363h-10.494l38.929-38.929c3.905-3.905 3.905-10.237 0-14.143-3.906-3.904-10.236-3.904-14.143 0l-38.929 38.929v-10.494c0-37.144 30.219-67.363 67.363-67.363zm-94.82-91.473 17.42-17.42 17.421 17.421c26.266 26.265 26.266 69.001 0 95.266l-7.421 7.421v-55.053c0-5.523-4.478-10-10-10s-10 4.477-10 10v55.053l-7.42-7.42c-12.724-12.723-19.73-29.639-19.73-47.633s7.006-34.911 19.73-47.635zm-84.543 91.473h24.637c37.145 0 67.363 30.219 67.363 67.363v10.494l-38.929-38.929c-3.906-3.904-10.236-3.904-14.143 0-3.905 3.905-3.905 10.237 0 14.143l38.929 38.929h-10.494c-37.145 0-67.363-30.219-67.363-67.363z"/><path id="XMLID_140_" d="m120.229 130.239c2.641 0 5.21-1.07 7.08-2.93 1.86-1.86 2.92-4.44 2.92-7.07 0-2.64-1.06-5.22-2.92-7.08-1.87-1.86-4.45-2.93-7.08-2.93-2.62 0-5.199 1.07-7.069 2.93-1.86 1.86-2.931 4.44-2.931 7.08 0 2.63 1.07 5.21 2.931 7.07 1.869 1.86 4.439 2.93 7.069 2.93z"/></g></g></svg>