<svg id="Capa_1" enable-background="new 0 0 512 512" height="512" viewBox="0 0 512 512" width="512" xmlns="http://www.w3.org/2000/svg"><g><path d="m302.681 158.429 173.415 173.415 28.263-28.263-201.678-201.678-201.677 201.678 28.262 28.263z" fill="#e4936b"/><path d="m302.681 101.903-10 10 160.117 160.117c6.385 6.385 6.385 16.736 0 23.121l-6.702 6.702 30 30 28.262-28.262z" fill="#e27d47"/><path d="m56.42 160.547h235.057v26.738h-235.057z" fill="#698ed5" transform="matrix(.707 -.707 .707 .707 -72.029 173.939)"/><path d="m302.681 158.429-146.026 146.026v165.889h292.038v-165.904z" fill="#f1f4f6"/><path d="m302.681 158.429-10 10 109.732 109.732c4.021 4.021 6.279 9.474 6.279 15.16v135.584c0 11.841-9.599 21.439-21.439 21.439h-230.598v20h292.038v-165.904z" fill="#dfeaef"/><path d="m502.327 504.5h-399.306v-16.445c0-9.781 7.929-17.711 17.711-17.711h363.885c9.781 0 17.711 7.929 17.711 17.711v16.445z" fill="#80cb8e"/><path d="m484.616 470.344h-22.289v3.356c0 5.964-4.835 10.8-10.799 10.8h-348.15c-.234 1.148-.357 2.337-.357 3.555v16.445h399.306v-16.445c0-9.782-7.929-17.711-17.711-17.711z" fill="#66b49d"/><path d="m243.88 115.929h25v26.738h-25z" fill="#9bb9c1" transform="matrix(.707 -.707 .707 .707 -16.336 219.157)"/><path d="m116.831 242.978h25v26.738h-25z" fill="#9bb9c1" transform="matrix(.707 -.707 .707 .707 -143.384 166.533)"/><path d="m448.693 247.915v-118.617h-50.626v67.992z" fill="#738b95"/><path d="m428.693 129.298v68.109c0 11.258-13.612 16.896-21.572 8.936l41.572 41.572v-118.617z" fill="#617881"/><circle cx="65.432" cy="65.29" fill="#f4dd45" r="26.216"/><circle cx="302.674" cy="252.406" fill="#ddeafb" r="31.232"/><path d="m199.503 317.911h88.757v152.433h-88.757z" fill="#e4936b"/><path d="m258.26 317.911v113.141c0 10.655-8.637 19.292-19.292 19.292h-39.465v20h88.757v-152.433z" fill="#e27d47"/><circle cx="274.585" cy="389.127" fill="#f4dd45" r="13.674"/><path d="m329.628 317.911h76.217v76.217h-76.217z" fill="#ddeafb"/><path d="m375.844 317.911v42.617c0 7.511-6.089 13.6-13.6 13.6h-32.617v20h76.217v-76.217z" fill="#cbe2ff"/><path d="m31.715 65.291c0 18.591 15.125 33.716 33.716 33.716s33.716-15.125 33.716-33.716-15.125-33.716-33.716-33.716-33.716 15.124-33.716 33.716zm33.717-18.717c10.32 0 18.716 8.396 18.716 18.716s-8.396 18.716-18.716 18.716-18.717-8.396-18.717-18.715c0-10.321 8.396-18.717 18.717-18.717z"/><path d="m263.942 252.406c0 21.357 17.375 38.732 38.732 38.732s38.732-17.375 38.732-38.732-17.375-38.732-38.732-38.732-38.732 17.375-38.732 38.732zm62.464 0c0 13.086-10.646 23.732-23.732 23.732s-23.732-10.646-23.732-23.732 10.646-23.732 23.732-23.732 23.732 10.646 23.732 23.732z"/><path d="m167.15 126.683c-4.142 0-7.5 3.358-7.5 7.5v9.516l-26.474-26.474c-2.929-2.929-7.678-2.929-10.606 0-2.929 2.929-2.929 7.678 0 10.606l26.474 26.474h-9.516c-4.142 0-7.5 3.358-7.5 7.5s3.358 7.5 7.5 7.5h9.518l-20.85 20.85v-9.518c0-4.142-3.358-7.5-7.5-7.5s-7.5 3.358-7.5 7.5v9.517l-26.475-26.474c-2.929-2.929-7.678-2.929-10.606 0-2.929 2.929-2.929 7.678 0 10.606l26.474 26.474h-9.517c-4.142 0-7.5 3.358-7.5 7.5s3.358 7.5 7.5 7.5h9.518l-26.503 26.503c-2.927 2.926-2.929 7.678 0 10.606l18.907 18.907c2.929 2.929 7.678 2.929 10.606 0l5.439-5.439 8.3 8.301-23.639 23.639c-2.929 2.929-2.929 7.678 0 10.606l28.263 28.263c2.926 2.927 7.678 2.929 10.606 0l14.585-14.585v140.282h-28.423c-13.901 0-25.211 11.31-25.211 25.211v16.446c0 4.142 3.358 7.5 7.5 7.5h399.307c4.143 0 7.5-3.358 7.5-7.5v-16.445c0-13.901-11.31-25.211-25.211-25.211h-28.424v-140.298l14.601 14.601c2.928 2.927 7.678 2.929 10.607 0l28.262-28.263c2.929-2.929 2.929-7.678 0-10.606l-53.47-53.47v-65.893c0-4.142-3.357-7.5-7.5-7.5s-7.5 3.358-7.5 7.5v50.893l-35.625-35.625v-57.385h35.625v7.118c0 4.142 3.357 7.5 7.5 7.5s7.5-3.358 7.5-7.5v-14.618c0-4.142-3.357-7.5-7.5-7.5h-50.625c-4.143 0-7.5 3.358-7.5 7.5v49.885l-82.583-82.583c-2.93-2.929-7.678-2.929-10.607 0l-22.705 22.706-8.3-8.3 5.439-5.439c2.929-2.929 2.929-7.678 0-10.606l-18.907-18.907c-2.926-2.927-7.678-2.929-10.606 0l-21.192 21.192v-9.518c0-4.142-3.358-7.5-7.5-7.5s-7.5 3.358-7.5 7.5v9.516l-26.474-26.474c-2.929-2.929-7.678-2.929-10.606 0-2.929 2.929-2.929 7.678 0 10.606l26.474 26.474h-9.517c-4.142 0-7.5 3.358-7.5 7.5s3.358 7.5 7.5 7.5h9.518l-20.85 20.85v-9.518c-.001-4.141-3.359-7.499-7.501-7.499zm-45.505 129.049 7.071-7.071 8.3 8.3-7.071 7.071zm373.182 232.323v8.945h-384.306v-8.945c0-5.63 4.581-10.211 10.211-10.211h363.885c5.629 0 10.21 4.58 10.21 10.211zm-53.634-25.211h-145.433v-6.874c0-4.142-3.357-7.5-7.5-7.5s-7.5 3.358-7.5 7.5v6.874h-73.757v-137.433h73.757v43.46c-13.602-4.154-27.349 6.09-27.349 20.256s13.746 24.41 27.349 20.256v11.587c0 4.142 3.357 7.5 7.5 7.5s7.5-3.358 7.5-7.5v-103.059c0-4.142-3.357-7.5-7.5-7.5h-88.757c-4.142 0-7.5 3.358-7.5 7.5v144.933h-27.848v-155.282l138.526-138.526 138.512 138.511zm-160.433-73.717c0 3.404-2.77 6.174-6.175 6.174-3.404 0-6.174-2.77-6.174-6.174s2.77-6.174 6.174-6.174c3.405 0 6.175 2.77 6.175 6.174zm21.921-276.617 191.071 191.071-17.655 17.656-168.113-168.112c-2.93-2.929-7.678-2.929-10.607 0l-168.111 168.112-17.656-17.657 118.45-118.449c2.929-2.929 2.929-7.678 0-10.606-2.929-2.929-7.678-2.929-10.606 0l-71.83 71.83-8.3-8.3 98.764-98.764 8.3 8.3-1.834 1.834c-2.929 2.929-2.929 7.678 0 10.606 2.929 2.929 7.678 2.929 10.606 0 5.942-5.942 44.427-44.428 47.521-47.521zm-38.616 17.402-7.071 7.071-8.3-8.3 7.071-7.071zm-16.464-37.949 8.3 8.3-155.604 155.605-8.3-8.3z"/><path d="m72.932 13.75v-6.25c0-4.142-3.358-7.5-7.5-7.5s-7.5 3.358-7.5 7.5v6.25c0 4.142 3.358 7.5 7.5 7.5s7.5-3.358 7.5-7.5z"/><path d="m100.993 19.123-4.419 4.419c-2.929 2.929-2.929 7.678 0 10.606 2.929 2.929 7.678 2.929 10.606 0l4.419-4.419c2.929-2.929 2.929-7.678 0-10.606-2.928-2.929-7.677-2.929-10.606 0z"/><path d="m123.222 57.791h-6.25c-4.142 0-7.5 3.358-7.5 7.5s3.358 7.5 7.5 7.5h6.25c4.142 0 7.5-3.358 7.5-7.5s-3.358-7.5-7.5-7.5z"/><path d="m111.599 111.458c2.929-2.929 2.929-7.678 0-10.606l-4.419-4.419c-2.929-2.929-7.678-2.929-10.606 0-2.929 2.929-2.929 7.678 0 10.606l4.419 4.419c2.929 2.929 7.677 2.928 10.606 0z"/><path d="m57.932 116.831v6.25c0 4.142 3.358 7.5 7.5 7.5s7.5-3.358 7.5-7.5v-6.25c0-4.142-3.358-7.5-7.5-7.5s-7.5 3.358-7.5 7.5z"/><path d="m23.683 96.432-4.419 4.419c-2.929 2.929-2.928 7.678 0 10.607 2.929 2.928 7.678 2.929 10.607 0l4.419-4.419c2.929-2.929 2.928-7.678 0-10.607-2.93-2.93-7.678-2.929-10.607 0z"/><path d="m7.641 57.791c-4.142 0-7.5 3.358-7.5 7.5s3.358 7.5 7.5 7.5h6.25c4.142 0 7.5-3.358 7.5-7.5s-3.358-7.5-7.5-7.5z"/><path d="m29.872 19.123c-2.929-2.928-7.678-2.929-10.607 0s-2.929 7.678 0 10.607l4.419 4.419c2.93 2.929 7.677 2.929 10.607 0 2.929-2.929 2.929-7.678 0-10.607z"/><path d="m322.128 317.911v76.216c0 4.142 3.357 7.5 7.5 7.5h76.217c4.143 0 7.5-3.358 7.5-7.5v-76.216c0-4.142-3.357-7.5-7.5-7.5h-76.217c-4.143 0-7.5 3.358-7.5 7.5zm15 7.5h61.217v61.216h-61.217z"/></g></svg>